<svg width="1375" height="242" viewBox="0 0 1375 242" fill="none" xmlns="http://www.w3.org/2000/svg">
<path fill-rule="evenodd" clip-rule="evenodd" d="M138.822 55.018L137.225 70.5033L172.881 106.553L183.194 102.186L185.631 98.65L186.442 97.0186L187.644 87.1022L176.494 80.8784L138.822 55.018ZM312.579 32.3052C313.397 25.0387 306.39 19.3779 299.455 21.7032L220.674 48.12C216.989 49.3558 214.354 52.615 213.92 56.4768L210.083 90.5753L277.619 161.61C280.976 164.264 285.543 165.226 289.872 163.774C293.886 162.428 296.805 159.315 298.066 155.576C298.708 153.238 299.187 150.847 299.507 148.424L299.726 146.504L300.415 140.362L312.579 32.3052Z" fill="url(#paint0_linear_90_20)"/>
<path fill-rule="evenodd" clip-rule="evenodd" d="M98.5184 69.9053L119.738 85.8861L110.413 108.042L100.75 98.1484L98.5411 80.7698L98.5184 69.9053ZM183.21 63.9169C182.447 63.4007 181.632 62.9627 180.781 62.6182L179.983 61.9627L169.674 59.9976L161.544 62.7236C159.919 63.8708 156.382 66.7438 155.23 69.058C153.79 71.9507 152.167 74.3019 150.545 76.6532C149.248 78.5342 145.61 108.631 143.954 123.444C144.26 125.55 145.052 129.943 145.777 130.664C146.156 131.042 150.63 132.583 155.741 134.234L151.78 168.273L169.977 187.268C169.977 187.268 169.977 187.268 169.977 187.269C169.978 187.27 169.978 187.271 169.979 187.272C169.98 187.274 169.982 187.275 169.985 187.274L169.993 187.281L175.156 192.67C188.856 205.217 208.843 210.124 227.781 203.774L265.72 191.052C265.807 191.02 265.893 190.989 265.978 190.958L265.978 190.958C266.068 190.926 266.157 190.894 266.245 190.861C266.492 190.766 266.733 190.67 266.979 190.572C266.982 190.571 266.985 190.569 266.988 190.568C266.99 190.567 266.991 190.566 266.993 190.565C266.998 190.563 267.004 190.561 267.012 190.561C267.163 190.497 267.315 190.434 267.466 190.372C267.618 190.31 267.77 190.247 267.922 190.183C268.154 190.087 268.385 189.986 268.616 189.885C268.692 189.851 268.769 189.818 268.846 189.784C269.152 189.645 269.458 189.506 269.758 189.369C270.363 189.087 270.96 188.792 271.552 188.49C271.842 188.341 272.136 188.184 272.427 188.029C274.431 186.954 276.346 185.76 278.161 184.462C278.887 183.941 279.598 183.407 280.295 182.853L280.374 182.789C280.691 182.534 281.009 182.277 281.322 182.012C282.556 180.976 283.741 179.892 284.868 178.755C285.315 178.304 285.761 177.843 286.193 177.375C286.355 177.2 286.515 177.023 286.673 176.848L286.675 176.846L286.835 176.668C287.46 175.962 288.066 175.246 288.657 174.514C288.662 174.501 288.67 174.489 288.682 174.479C288.878 174.23 289.073 173.981 289.267 173.727C289.443 173.501 289.617 173.272 289.788 173.041C289.855 172.95 289.921 172.859 289.987 172.768C290.09 172.627 290.193 172.486 290.297 172.345C290.803 171.642 291.287 170.931 291.756 170.209C292.226 169.488 292.678 168.753 293.112 168.007C294.837 165.026 296.273 161.888 297.394 158.634C297.487 158.362 297.577 158.084 297.664 157.814C297.83 157.304 297.989 156.79 298.14 156.273C298.165 156.183 298.191 156.093 298.217 156.002L298.217 156.002C298.24 155.925 298.262 155.848 298.283 155.77C298.292 155.739 298.3 155.708 298.308 155.677C297.035 159.401 294.095 162.509 290.07 163.868C285.723 165.325 281.143 164.382 277.787 161.75C277.572 161.587 277.367 161.415 277.166 161.236C276.616 160.758 276.109 160.227 275.645 159.657L210.235 91.3753L186.785 66.8989C186.166 66.3322 185.532 65.7792 184.883 65.2437C184.335 64.7901 183.781 64.3476 183.21 63.9169Z" fill="url(#paint1_linear_90_20)"/>
<path d="M182.873 63.7674C182.038 63.2 181.14 62.7268 180.202 62.368C177.465 61.3196 174.363 61.1768 171.375 62.1789C168.389 63.1801 166.002 65.1632 164.458 67.6471C163.625 68.9842 163.029 70.4734 162.721 72.0368C162.571 72.7454 162.492 73.4731 162.465 74.2107L151.703 167.998L151.688 168.128L147.792 202.041C147.349 205.893 144.718 209.141 141.041 210.374L62.3371 236.765C55.3935 239.093 48.3806 233.415 49.2155 226.141L62.1987 113.035L62.4923 110.483L62.5031 110.379C65.1783 91.2777 78.3388 74.3579 97.905 67.7969L135.824 55.0818C145.559 52.1835 155.517 52.2429 164.696 54.7615C170.417 56.3212 175.837 58.8385 180.706 62.1959C181.445 62.6978 182.166 63.2243 182.873 63.7674Z" fill="#7E41E1"/>
<path d="M427.037 182.383V67.1833H449.117L499.197 143.983V67.1833H521.277V182.383H499.197L449.117 105.583V182.383H427.037ZM583.76 184.783C574.907 184.783 567.093 182.89 560.32 179.103C553.6 175.263 548.32 170.01 544.48 163.343C540.693 156.623 538.8 148.943 538.8 140.303C538.8 130.863 540.667 122.65 544.4 115.663C548.133 108.677 553.28 103.263 559.84 99.4233C566.4 95.53 573.947 93.5833 582.48 93.5833C591.547 93.5833 599.253 95.7166 605.6 99.9833C611.947 104.25 616.64 110.25 619.68 117.983C622.72 125.717 623.787 134.81 622.88 145.263H601.36V137.263C601.36 128.463 599.947 122.143 597.12 118.303C594.347 114.41 589.787 112.463 583.44 112.463C576.027 112.463 570.56 114.73 567.04 119.263C563.573 123.743 561.84 130.383 561.84 139.183C561.84 147.237 563.573 153.477 567.04 157.903C570.56 162.277 575.707 164.463 582.48 164.463C586.747 164.463 590.4 163.53 593.44 161.663C596.48 159.797 598.8 157.103 600.4 153.583L622.16 159.823C618.907 167.717 613.76 173.85 606.72 178.223C599.733 182.597 592.08 184.783 583.76 184.783ZM555.12 145.263V129.103H612.4V145.263H555.12ZM656.219 182.383L629.819 95.8233L651.099 95.9833L666.779 147.503L682.699 95.9833H700.779L716.699 147.503L732.379 95.9833H753.659L727.259 182.383H710.619L691.739 126.063L672.859 182.383H656.219ZM800.291 184.943C793.518 184.943 787.998 183.797 783.731 181.503C779.464 179.21 776.131 176.303 773.731 172.783C771.384 169.263 769.704 165.61 768.691 161.823C767.678 157.983 767.064 154.49 766.851 151.343C766.638 148.197 766.531 145.903 766.531 144.463V95.9833H788.611V136.783C788.611 138.757 788.718 141.29 788.931 144.383C789.144 147.423 789.811 150.49 790.931 153.583C792.051 156.677 793.864 159.263 796.371 161.343C798.931 163.423 802.531 164.463 807.171 164.463C809.038 164.463 811.038 164.17 813.171 163.583C815.304 162.997 817.304 161.877 819.171 160.223C821.038 158.517 822.558 156.037 823.731 152.783C824.958 149.477 825.571 145.157 825.571 139.823L838.051 145.743C838.051 152.57 836.664 158.97 833.891 164.943C831.118 170.917 826.931 175.743 821.331 179.423C815.784 183.103 808.771 184.943 800.291 184.943ZM828.291 182.383V153.743H825.571V95.9833H847.491V182.383H828.291ZM903.61 184.783C892.73 184.783 883.93 182.33 877.21 177.423C870.543 172.463 866.49 165.477 865.05 156.463L887.29 153.103C888.197 157.157 890.197 160.33 893.29 162.623C896.437 164.917 900.41 166.063 905.21 166.063C909.157 166.063 912.197 165.317 914.33 163.823C916.463 162.277 917.53 160.143 917.53 157.423C917.53 155.717 917.103 154.357 916.25 153.343C915.397 152.277 913.477 151.237 910.49 150.223C907.557 149.21 902.97 147.877 896.73 146.223C889.69 144.41 884.063 142.383 879.85 140.143C875.637 137.903 872.597 135.237 870.73 132.143C868.863 128.997 867.93 125.21 867.93 120.783C867.93 115.237 869.343 110.437 872.17 106.383C874.997 102.277 878.97 99.13 884.09 96.9433C889.263 94.7033 895.343 93.5833 902.33 93.5833C909.103 93.5833 915.103 94.6233 920.33 96.7033C925.557 98.7833 929.77 101.743 932.97 105.583C936.223 109.423 938.223 113.957 938.97 119.183L916.73 123.183C916.357 119.983 914.97 117.45 912.57 115.583C910.17 113.717 906.917 112.623 902.81 112.303C898.81 112.037 895.583 112.57 893.13 113.903C890.73 115.237 889.53 117.157 889.53 119.663C889.53 121.157 890.037 122.41 891.05 123.423C892.117 124.437 894.277 125.477 897.53 126.543C900.837 127.61 905.85 128.997 912.57 130.703C919.13 132.41 924.383 134.41 928.33 136.703C932.33 138.943 935.237 141.663 937.05 144.863C938.863 148.01 939.77 151.823 939.77 156.303C939.77 165.157 936.57 172.117 930.17 177.183C923.77 182.25 914.917 184.783 903.61 184.783Z" fill="#2C2C2C"/>
<path d="M984.07 182.383V87.5033H947.75V67.1833H1042.15V87.5033H1005.83V182.383H984.07ZM1082.35 184.783C1073.5 184.783 1065.69 182.89 1058.91 179.103C1052.19 175.263 1046.91 170.01 1043.07 163.343C1039.29 156.623 1037.39 148.943 1037.39 140.303C1037.39 130.863 1039.26 122.65 1042.99 115.663C1046.73 108.677 1051.87 103.263 1058.43 99.4233C1064.99 95.53 1072.54 93.5833 1081.07 93.5833C1090.14 93.5833 1097.85 95.7166 1104.19 99.9833C1110.54 104.25 1115.23 110.25 1118.27 117.983C1121.31 125.717 1122.38 134.81 1121.47 145.263H1099.95V137.263C1099.95 128.463 1098.54 122.143 1095.71 118.303C1092.94 114.41 1088.38 112.463 1082.03 112.463C1074.62 112.463 1069.15 114.73 1065.63 119.263C1062.17 123.743 1060.43 130.383 1060.43 139.183C1060.43 147.237 1062.17 153.477 1065.63 157.903C1069.15 162.277 1074.3 164.463 1081.07 164.463C1085.34 164.463 1088.99 163.53 1092.03 161.663C1095.07 159.797 1097.39 157.103 1098.99 153.583L1120.75 159.823C1117.5 167.717 1112.35 173.85 1105.31 178.223C1098.33 182.597 1090.67 184.783 1082.35 184.783ZM1053.71 145.263V129.103H1110.99V145.263H1053.71ZM1177.62 184.783C1168.66 184.783 1160.98 182.783 1154.58 178.783C1148.18 174.783 1143.27 169.343 1139.86 162.463C1136.44 155.583 1134.74 147.823 1134.74 139.183C1134.74 130.437 1136.5 122.623 1140.02 115.743C1143.59 108.863 1148.6 103.45 1155.06 99.5033C1161.51 95.5566 1169.14 93.5833 1177.94 93.5833C1188.12 93.5833 1196.66 96.17 1203.54 101.343C1210.47 106.463 1214.9 113.477 1216.82 122.383L1195.06 128.143C1193.78 123.663 1191.54 120.17 1188.34 117.663C1185.19 115.157 1181.62 113.903 1177.62 113.903C1173.03 113.903 1169.27 115.023 1166.34 117.263C1163.4 119.45 1161.24 122.463 1159.86 126.303C1158.47 130.09 1157.78 134.383 1157.78 139.183C1157.78 146.703 1159.43 152.81 1162.74 157.503C1166.1 162.143 1171.06 164.463 1177.62 164.463C1182.52 164.463 1186.26 163.343 1188.82 161.103C1191.38 158.863 1193.3 155.663 1194.58 151.503L1216.82 156.143C1214.36 165.317 1209.72 172.383 1202.9 177.343C1196.07 182.303 1187.64 184.783 1177.62 184.783ZM1291.7 182.383V141.583C1291.7 139.61 1291.59 137.103 1291.38 134.063C1291.17 130.97 1290.5 127.877 1289.38 124.783C1288.26 121.69 1286.42 119.103 1283.86 117.023C1281.35 114.943 1277.78 113.903 1273.14 113.903C1271.27 113.903 1269.27 114.197 1267.14 114.783C1265.01 115.37 1263.01 116.517 1261.14 118.223C1259.27 119.877 1257.73 122.33 1256.5 125.583C1255.33 128.837 1254.74 133.157 1254.74 138.543L1242.26 132.623C1242.26 125.797 1243.65 119.397 1246.42 113.423C1249.19 107.45 1253.35 102.623 1258.9 98.9433C1264.5 95.2633 1271.54 93.4233 1280.02 93.4233C1286.79 93.4233 1292.31 94.57 1296.58 96.8633C1300.85 99.1566 1304.15 102.063 1306.5 105.583C1308.9 109.103 1310.61 112.783 1311.62 116.623C1312.63 120.41 1313.25 123.877 1313.46 127.023C1313.67 130.17 1313.78 132.463 1313.78 133.903V182.383H1291.7ZM1232.66 182.383V67.1833H1252.02V126.383H1254.74V182.383H1232.66ZM1338.06 182.383V160.623H1359.82V182.383H1338.06Z" fill="#7E41E1"/>
<defs>
<linearGradient id="paint0_linear_90_20" x1="237.825" y1="-60.3984" x2="235.236" y2="215.675" gradientUnits="userSpaceOnUse">
<stop offset="0.383333" stop-color="#7E41E1"/>
<stop offset="0.909611" stop-color="#2E1D49"/>
</linearGradient>
<linearGradient id="paint1_linear_90_20" x1="172.104" y1="45.2059" x2="224.816" y2="181.093" gradientUnits="userSpaceOnUse">
<stop stop-color="#2E1D49"/>
<stop offset="1" stop-color="#7E41E1"/>
</linearGradient>
</defs>
</svg>
